<mxfile host="Electron" modified="2024-06-11T09:12:34.322Z" agent="Mozilla/5.0 (Windows NT 10.0; Win64; x64) AppleWebKit/537.36 (KHTML, like Gecko) draw.io/21.5.1 Chrome/112.0.5615.204 Electron/24.6.0 Safari/537.36" etag="FXJY4hVn6rv1vkqzge7J" version="21.5.1" type="device">
  <diagram name="Page-1" id="koKJu4bifiyeUKqTu7H9">
    <mxGraphModel dx="2849" dy="1666" grid="0" gridSize="10" guides="1" tooltips="1" connect="1" arrows="1" fold="1" page="0" pageScale="1" pageWidth="1169" pageHeight="827" math="0" shadow="0">
      <root>
        <mxCell id="0" />
        <mxCell id="1" parent="0" />
        <mxCell id="xtY6v8Lu6_DeVagmVKoq-10" style="edgeStyle=none;curved=1;rounded=0;sketch=1;hachureGap=4;jiggle=2;curveFitting=1;orthogonalLoop=1;jettySize=auto;html=1;entryX=0.5;entryY=0;entryDx=0;entryDy=0;fontFamily=Architects Daughter;fontSource=https%3A%2F%2Ffonts.googleapis.com%2Fcss%3Ffamily%3DArchitects%2BDaughter;fontSize=16;startSize=8;endSize=8;" edge="1" parent="1" source="xtY6v8Lu6_DeVagmVKoq-1" target="xtY6v8Lu6_DeVagmVKoq-8">
          <mxGeometry relative="1" as="geometry" />
        </mxCell>
        <mxCell id="xtY6v8Lu6_DeVagmVKoq-11" style="edgeStyle=none;curved=1;rounded=0;sketch=1;hachureGap=4;jiggle=2;curveFitting=1;orthogonalLoop=1;jettySize=auto;html=1;entryX=0.5;entryY=0;entryDx=0;entryDy=0;fontFamily=Architects Daughter;fontSource=https%3A%2F%2Ffonts.googleapis.com%2Fcss%3Ffamily%3DArchitects%2BDaughter;fontSize=16;startSize=8;endSize=8;" edge="1" parent="1" source="xtY6v8Lu6_DeVagmVKoq-1" target="xtY6v8Lu6_DeVagmVKoq-9">
          <mxGeometry relative="1" as="geometry" />
        </mxCell>
        <mxCell id="xtY6v8Lu6_DeVagmVKoq-1" value="apple store" style="rounded=0;whiteSpace=wrap;html=1;sketch=1;hachureGap=4;jiggle=2;curveFitting=1;fontFamily=Architects Daughter;fontSource=https%3A%2F%2Ffonts.googleapis.com%2Fcss%3Ffamily%3DArchitects%2BDaughter;fontSize=20;" vertex="1" parent="1">
          <mxGeometry x="326" y="6" width="120" height="60" as="geometry" />
        </mxCell>
        <mxCell id="xtY6v8Lu6_DeVagmVKoq-4" value="" style="edgeStyle=none;curved=1;rounded=0;sketch=1;hachureGap=4;jiggle=2;curveFitting=1;orthogonalLoop=1;jettySize=auto;html=1;fontFamily=Architects Daughter;fontSource=https%3A%2F%2Ffonts.googleapis.com%2Fcss%3Ffamily%3DArchitects%2BDaughter;fontSize=16;startSize=8;endSize=8;" edge="1" parent="1" source="xtY6v8Lu6_DeVagmVKoq-2" target="xtY6v8Lu6_DeVagmVKoq-3">
          <mxGeometry relative="1" as="geometry" />
        </mxCell>
        <mxCell id="xtY6v8Lu6_DeVagmVKoq-5" value="" style="edgeStyle=none;curved=1;rounded=0;sketch=1;hachureGap=4;jiggle=2;curveFitting=1;orthogonalLoop=1;jettySize=auto;html=1;fontFamily=Architects Daughter;fontSource=https%3A%2F%2Ffonts.googleapis.com%2Fcss%3Ffamily%3DArchitects%2BDaughter;fontSize=16;startSize=8;endSize=8;" edge="1" parent="1" source="xtY6v8Lu6_DeVagmVKoq-2" target="xtY6v8Lu6_DeVagmVKoq-3">
          <mxGeometry relative="1" as="geometry" />
        </mxCell>
        <mxCell id="xtY6v8Lu6_DeVagmVKoq-7" style="edgeStyle=none;curved=1;rounded=0;sketch=1;hachureGap=4;jiggle=2;curveFitting=1;orthogonalLoop=1;jettySize=auto;html=1;entryX=0.5;entryY=0;entryDx=0;entryDy=0;fontFamily=Architects Daughter;fontSource=https%3A%2F%2Ffonts.googleapis.com%2Fcss%3Ffamily%3DArchitects%2BDaughter;fontSize=16;startSize=8;endSize=8;" edge="1" parent="1" source="xtY6v8Lu6_DeVagmVKoq-2" target="xtY6v8Lu6_DeVagmVKoq-6">
          <mxGeometry relative="1" as="geometry" />
        </mxCell>
        <mxCell id="xtY6v8Lu6_DeVagmVKoq-2" value="samsung store" style="rounded=0;whiteSpace=wrap;html=1;sketch=1;hachureGap=4;jiggle=2;curveFitting=1;fontFamily=Architects Daughter;fontSource=https%3A%2F%2Ffonts.googleapis.com%2Fcss%3Ffamily%3DArchitects%2BDaughter;fontSize=20;" vertex="1" parent="1">
          <mxGeometry x="-103" y="15" width="120" height="60" as="geometry" />
        </mxCell>
        <mxCell id="xtY6v8Lu6_DeVagmVKoq-21" style="edgeStyle=none;curved=1;rounded=0;sketch=1;hachureGap=4;jiggle=2;curveFitting=1;orthogonalLoop=1;jettySize=auto;html=1;entryX=0.5;entryY=0;entryDx=0;entryDy=0;fontFamily=Architects Daughter;fontSource=https%3A%2F%2Ffonts.googleapis.com%2Fcss%3Ffamily%3DArchitects%2BDaughter;fontSize=16;startSize=8;endSize=8;" edge="1" parent="1" source="xtY6v8Lu6_DeVagmVKoq-3" target="xtY6v8Lu6_DeVagmVKoq-16">
          <mxGeometry relative="1" as="geometry" />
        </mxCell>
        <mxCell id="xtY6v8Lu6_DeVagmVKoq-26" style="edgeStyle=none;curved=1;rounded=0;sketch=1;hachureGap=4;jiggle=2;curveFitting=1;orthogonalLoop=1;jettySize=auto;html=1;fontFamily=Architects Daughter;fontSource=https%3A%2F%2Ffonts.googleapis.com%2Fcss%3Ffamily%3DArchitects%2BDaughter;fontSize=16;startSize=8;endSize=8;entryX=0.5;entryY=0;entryDx=0;entryDy=0;" edge="1" parent="1" source="xtY6v8Lu6_DeVagmVKoq-3" target="xtY6v8Lu6_DeVagmVKoq-27">
          <mxGeometry relative="1" as="geometry">
            <mxPoint x="-247" y="497" as="targetPoint" />
          </mxGeometry>
        </mxCell>
        <mxCell id="xtY6v8Lu6_DeVagmVKoq-29" style="edgeStyle=none;curved=1;rounded=0;sketch=1;hachureGap=4;jiggle=2;curveFitting=1;orthogonalLoop=1;jettySize=auto;html=1;fontFamily=Architects Daughter;fontSource=https%3A%2F%2Ffonts.googleapis.com%2Fcss%3Ffamily%3DArchitects%2BDaughter;fontSize=16;startSize=8;endSize=8;entryX=0.5;entryY=0;entryDx=0;entryDy=0;" edge="1" parent="1" source="xtY6v8Lu6_DeVagmVKoq-3" target="xtY6v8Lu6_DeVagmVKoq-30">
          <mxGeometry relative="1" as="geometry">
            <mxPoint x="-43" y="842" as="targetPoint" />
          </mxGeometry>
        </mxCell>
        <mxCell id="xtY6v8Lu6_DeVagmVKoq-3" value="samsung phone" style="rounded=0;whiteSpace=wrap;html=1;sketch=1;hachureGap=4;jiggle=2;curveFitting=1;fontFamily=Architects Daughter;fontSource=https%3A%2F%2Ffonts.googleapis.com%2Fcss%3Ffamily%3DArchitects%2BDaughter;fontSize=20;" vertex="1" parent="1">
          <mxGeometry x="-175" y="194" width="120" height="60" as="geometry" />
        </mxCell>
        <mxCell id="xtY6v8Lu6_DeVagmVKoq-23" style="edgeStyle=none;curved=1;rounded=0;sketch=1;hachureGap=4;jiggle=2;curveFitting=1;orthogonalLoop=1;jettySize=auto;html=1;entryX=0;entryY=0.5;entryDx=0;entryDy=0;fontFamily=Architects Daughter;fontSource=https%3A%2F%2Ffonts.googleapis.com%2Fcss%3Ffamily%3DArchitects%2BDaughter;fontSize=16;startSize=8;endSize=8;" edge="1" parent="1" source="xtY6v8Lu6_DeVagmVKoq-6" target="xtY6v8Lu6_DeVagmVKoq-19">
          <mxGeometry relative="1" as="geometry" />
        </mxCell>
        <mxCell id="xtY6v8Lu6_DeVagmVKoq-6" value="laptop samsung" style="rounded=0;whiteSpace=wrap;html=1;sketch=1;hachureGap=4;jiggle=2;curveFitting=1;fontFamily=Architects Daughter;fontSource=https%3A%2F%2Ffonts.googleapis.com%2Fcss%3Ffamily%3DArchitects%2BDaughter;fontSize=20;" vertex="1" parent="1">
          <mxGeometry x="-12" y="194" width="120" height="60" as="geometry" />
        </mxCell>
        <mxCell id="xtY6v8Lu6_DeVagmVKoq-22" style="edgeStyle=none;curved=1;rounded=0;sketch=1;hachureGap=4;jiggle=2;curveFitting=1;orthogonalLoop=1;jettySize=auto;html=1;entryX=0.5;entryY=0;entryDx=0;entryDy=0;fontFamily=Architects Daughter;fontSource=https%3A%2F%2Ffonts.googleapis.com%2Fcss%3Ffamily%3DArchitects%2BDaughter;fontSize=16;startSize=8;endSize=8;" edge="1" parent="1" source="xtY6v8Lu6_DeVagmVKoq-8" target="xtY6v8Lu6_DeVagmVKoq-16">
          <mxGeometry relative="1" as="geometry" />
        </mxCell>
        <mxCell id="xtY6v8Lu6_DeVagmVKoq-8" value="apple phone" style="rounded=0;whiteSpace=wrap;html=1;sketch=1;hachureGap=4;jiggle=2;curveFitting=1;fontFamily=Architects Daughter;fontSource=https%3A%2F%2Ffonts.googleapis.com%2Fcss%3Ffamily%3DArchitects%2BDaughter;fontSize=20;" vertex="1" parent="1">
          <mxGeometry x="240" y="196" width="120" height="60" as="geometry" />
        </mxCell>
        <mxCell id="xtY6v8Lu6_DeVagmVKoq-24" style="edgeStyle=none;curved=1;rounded=0;sketch=1;hachureGap=4;jiggle=2;curveFitting=1;orthogonalLoop=1;jettySize=auto;html=1;entryX=0.5;entryY=0;entryDx=0;entryDy=0;fontFamily=Architects Daughter;fontSource=https%3A%2F%2Ffonts.googleapis.com%2Fcss%3Ffamily%3DArchitects%2BDaughter;fontSize=16;startSize=8;endSize=8;" edge="1" parent="1" source="xtY6v8Lu6_DeVagmVKoq-9" target="xtY6v8Lu6_DeVagmVKoq-19">
          <mxGeometry relative="1" as="geometry" />
        </mxCell>
        <mxCell id="xtY6v8Lu6_DeVagmVKoq-9" value="laptop apple" style="rounded=0;whiteSpace=wrap;html=1;sketch=1;hachureGap=4;jiggle=2;curveFitting=1;fontFamily=Architects Daughter;fontSource=https%3A%2F%2Ffonts.googleapis.com%2Fcss%3Ffamily%3DArchitects%2BDaughter;fontSize=20;" vertex="1" parent="1">
          <mxGeometry x="403" y="196" width="120" height="60" as="geometry" />
        </mxCell>
        <mxCell id="xtY6v8Lu6_DeVagmVKoq-12" value="admin" style="shape=umlActor;verticalLabelPosition=bottom;verticalAlign=top;html=1;outlineConnect=0;sketch=1;hachureGap=4;jiggle=2;curveFitting=1;fontFamily=Architects Daughter;fontSource=https%3A%2F%2Ffonts.googleapis.com%2Fcss%3Ffamily%3DArchitects%2BDaughter;fontSize=20;" vertex="1" parent="1">
          <mxGeometry x="167" y="-125" width="30" height="60" as="geometry" />
        </mxCell>
        <mxCell id="xtY6v8Lu6_DeVagmVKoq-25" style="edgeStyle=none;curved=1;rounded=0;sketch=1;hachureGap=4;jiggle=2;curveFitting=1;orthogonalLoop=1;jettySize=auto;html=1;entryX=0.5;entryY=0;entryDx=0;entryDy=0;fontFamily=Architects Daughter;fontSource=https%3A%2F%2Ffonts.googleapis.com%2Fcss%3Ffamily%3DArchitects%2BDaughter;fontSize=16;startSize=8;endSize=8;" edge="1" parent="1" source="xtY6v8Lu6_DeVagmVKoq-13" target="xtY6v8Lu6_DeVagmVKoq-14">
          <mxGeometry relative="1" as="geometry" />
        </mxCell>
        <mxCell id="xtY6v8Lu6_DeVagmVKoq-13" value="apollo" style="rounded=0;whiteSpace=wrap;html=1;sketch=1;hachureGap=4;jiggle=2;curveFitting=1;fontFamily=Architects Daughter;fontSource=https%3A%2F%2Ffonts.googleapis.com%2Fcss%3Ffamily%3DArchitects%2BDaughter;fontSize=20;" vertex="1" parent="1">
          <mxGeometry x="797" y="-88" width="120" height="60" as="geometry" />
        </mxCell>
        <mxCell id="xtY6v8Lu6_DeVagmVKoq-17" value="" style="edgeStyle=none;curved=1;rounded=0;sketch=1;hachureGap=4;jiggle=2;curveFitting=1;orthogonalLoop=1;jettySize=auto;html=1;fontFamily=Architects Daughter;fontSource=https%3A%2F%2Ffonts.googleapis.com%2Fcss%3Ffamily%3DArchitects%2BDaughter;fontSize=16;startSize=8;endSize=8;" edge="1" parent="1" source="xtY6v8Lu6_DeVagmVKoq-14" target="xtY6v8Lu6_DeVagmVKoq-16">
          <mxGeometry relative="1" as="geometry" />
        </mxCell>
        <mxCell id="xtY6v8Lu6_DeVagmVKoq-18" value="" style="edgeStyle=none;curved=1;rounded=0;sketch=1;hachureGap=4;jiggle=2;curveFitting=1;orthogonalLoop=1;jettySize=auto;html=1;fontFamily=Architects Daughter;fontSource=https%3A%2F%2Ffonts.googleapis.com%2Fcss%3Ffamily%3DArchitects%2BDaughter;fontSize=16;startSize=8;endSize=8;" edge="1" parent="1" source="xtY6v8Lu6_DeVagmVKoq-14" target="xtY6v8Lu6_DeVagmVKoq-16">
          <mxGeometry relative="1" as="geometry" />
        </mxCell>
        <mxCell id="xtY6v8Lu6_DeVagmVKoq-20" style="edgeStyle=none;curved=1;rounded=0;sketch=1;hachureGap=4;jiggle=2;curveFitting=1;orthogonalLoop=1;jettySize=auto;html=1;entryX=0.5;entryY=0;entryDx=0;entryDy=0;fontFamily=Architects Daughter;fontSource=https%3A%2F%2Ffonts.googleapis.com%2Fcss%3Ffamily%3DArchitects%2BDaughter;fontSize=16;startSize=8;endSize=8;" edge="1" parent="1" source="xtY6v8Lu6_DeVagmVKoq-14" target="xtY6v8Lu6_DeVagmVKoq-19">
          <mxGeometry relative="1" as="geometry" />
        </mxCell>
        <mxCell id="xtY6v8Lu6_DeVagmVKoq-14" value="category" style="rounded=0;whiteSpace=wrap;html=1;sketch=1;hachureGap=4;jiggle=2;curveFitting=1;fontFamily=Architects Daughter;fontSource=https%3A%2F%2Ffonts.googleapis.com%2Fcss%3Ffamily%3DArchitects%2BDaughter;fontSize=20;" vertex="1" parent="1">
          <mxGeometry x="797" y="400" width="120" height="60" as="geometry" />
        </mxCell>
        <mxCell id="xtY6v8Lu6_DeVagmVKoq-16" value="phone" style="rounded=0;whiteSpace=wrap;html=1;sketch=1;hachureGap=4;jiggle=2;curveFitting=1;fontFamily=Architects Daughter;fontSource=https%3A%2F%2Ffonts.googleapis.com%2Fcss%3Ffamily%3DArchitects%2BDaughter;fontSize=20;" vertex="1" parent="1">
          <mxGeometry x="-92" y="556" width="120" height="60" as="geometry" />
        </mxCell>
        <mxCell id="xtY6v8Lu6_DeVagmVKoq-19" value="laptop" style="rounded=0;whiteSpace=wrap;html=1;sketch=1;hachureGap=4;jiggle=2;curveFitting=1;fontFamily=Architects Daughter;fontSource=https%3A%2F%2Ffonts.googleapis.com%2Fcss%3Ffamily%3DArchitects%2BDaughter;fontSize=20;" vertex="1" parent="1">
          <mxGeometry x="388" y="552" width="120" height="60" as="geometry" />
        </mxCell>
        <mxCell id="xtY6v8Lu6_DeVagmVKoq-28" style="edgeStyle=none;curved=1;rounded=0;sketch=1;hachureGap=4;jiggle=2;curveFitting=1;orthogonalLoop=1;jettySize=auto;html=1;entryX=0.5;entryY=1;entryDx=0;entryDy=0;fontFamily=Architects Daughter;fontSource=https%3A%2F%2Ffonts.googleapis.com%2Fcss%3Ffamily%3DArchitects%2BDaughter;fontSize=16;startSize=8;endSize=8;" edge="1" parent="1" source="xtY6v8Lu6_DeVagmVKoq-27" target="xtY6v8Lu6_DeVagmVKoq-16">
          <mxGeometry relative="1" as="geometry" />
        </mxCell>
        <mxCell id="xtY6v8Lu6_DeVagmVKoq-27" value="galaxy phone" style="rounded=0;whiteSpace=wrap;html=1;sketch=1;hachureGap=4;jiggle=2;curveFitting=1;fontFamily=Architects Daughter;fontSource=https%3A%2F%2Ffonts.googleapis.com%2Fcss%3Ffamily%3DArchitects%2BDaughter;fontSize=20;" vertex="1" parent="1">
          <mxGeometry x="-283" y="840" width="120" height="60" as="geometry" />
        </mxCell>
        <mxCell id="xtY6v8Lu6_DeVagmVKoq-30" value="flip phone" style="rounded=0;whiteSpace=wrap;html=1;sketch=1;hachureGap=4;jiggle=2;curveFitting=1;fontFamily=Architects Daughter;fontSource=https%3A%2F%2Ffonts.googleapis.com%2Fcss%3Ffamily%3DArchitects%2BDaughter;fontSize=20;" vertex="1" parent="1">
          <mxGeometry x="-99" y="840" width="120" height="60" as="geometry" />
        </mxCell>
        <mxCell id="xtY6v8Lu6_DeVagmVKoq-31" value="STORE" style="text;html=1;strokeColor=none;fillColor=none;align=center;verticalAlign=middle;whiteSpace=wrap;rounded=0;fontSize=20;fontFamily=Architects Daughter;" vertex="1" parent="1">
          <mxGeometry x="-199" y="30" width="60" height="30" as="geometry" />
        </mxCell>
        <mxCell id="xtY6v8Lu6_DeVagmVKoq-32" value="STORE CATEGORY" style="text;html=1;strokeColor=none;fillColor=none;align=center;verticalAlign=middle;whiteSpace=wrap;rounded=0;fontSize=20;fontFamily=Architects Daughter;" vertex="1" parent="1">
          <mxGeometry x="-278" y="209" width="60" height="30" as="geometry" />
        </mxCell>
        <mxCell id="xtY6v8Lu6_DeVagmVKoq-33" value="SUB-STORE CATEGORY" style="text;html=1;strokeColor=none;fillColor=none;align=center;verticalAlign=middle;whiteSpace=wrap;rounded=0;fontSize=20;fontFamily=Architects Daughter;" vertex="1" parent="1">
          <mxGeometry x="-407" y="855" width="60" height="30" as="geometry" />
        </mxCell>
        <mxCell id="xtY6v8Lu6_DeVagmVKoq-34" value="WEBSITE" style="text;html=1;strokeColor=none;fillColor=none;align=center;verticalAlign=middle;whiteSpace=wrap;rounded=0;fontSize=20;fontFamily=Architects Daughter;" vertex="1" parent="1">
          <mxGeometry x="1078" y="-73" width="60" height="30" as="geometry" />
        </mxCell>
        <mxCell id="xtY6v8Lu6_DeVagmVKoq-35" value="WEBSITE CATEGORY" style="text;html=1;strokeColor=none;fillColor=none;align=center;verticalAlign=middle;whiteSpace=wrap;rounded=0;fontSize=20;fontFamily=Architects Daughter;" vertex="1" parent="1">
          <mxGeometry x="1069" y="504" width="60" height="30" as="geometry" />
        </mxCell>
      </root>
    </mxGraphModel>
  </diagram>
</mxfile>
